<?xml version="1.0" encoding="UTF-8"?>
<svg version="1.1" xmlns="http://www.w3.org/2000/svg" width="491" height="509">
<path d="M0 0 C1.95910675 1.43324125 3.94902958 2.82539472 5.96875 4.171875 C5.96875 4.831875 5.96875 5.491875 5.96875 6.171875 C6.52820313 6.40648437 7.08765625 6.64109375 7.6640625 6.8828125 C14.92646856 10.94483623 21.68079597 19.06014636 25.96875 26.171875 C25.96875 26.831875 25.96875 27.491875 25.96875 28.171875 C26.62875 28.171875 27.28875 28.171875 27.96875 28.171875 C29.89506059 31.62491811 31.80795504 35.08522553 33.71875 38.546875 C34.25757813 39.51238281 34.79640625 40.47789062 35.3515625 41.47265625 C50.58586126 69.15449181 54.42404635 102.70212217 46.40039062 133.34228516 C45.128903 137.69887908 43.59093188 141.93277707 41.96875 146.171875 C41.50855469 147.48478516 41.50855469 147.48478516 41.0390625 148.82421875 C37.24240432 159.18943157 31.02935889 170.67216111 23.96875 179.171875 C23.30875 179.171875 22.64875 179.171875 21.96875 179.171875 C21.57236328 180.04199219 21.57236328 180.04199219 21.16796875 180.9296875 C17.78873899 187.2478565 11.83109597 193.08834113 5.96875 197.171875 C5.30875 197.171875 4.64875 197.171875 3.96875 197.171875 C3.96875 197.831875 3.96875 198.491875 3.96875 199.171875 C3.30875 199.171875 2.64875 199.171875 1.96875 199.171875 C1.96875 199.831875 1.96875 200.491875 1.96875 201.171875 C-0.14234888 202.82510819 -2.2359263 204.3225465 -4.46875 205.796875 C-5.13745117 206.2398291 -5.80615234 206.6827832 -6.49511719 207.13916016 C-13.97145847 211.9602067 -21.86351952 215.68486592 -30.03125 219.171875 C-30.97226563 219.58179688 -31.91328125 219.99171875 -32.8828125 220.4140625 C-35.57220383 221.48815377 -38.25194232 222.35699945 -41.03125 223.171875 C-42.26359375 223.543125 -43.4959375 223.914375 -44.765625 224.296875 C-65.59086516 229.90459214 -91.46560503 229.68821392 -112.03125 223.171875 C-112.71880371 222.95756836 -113.40635742 222.74326172 -114.11474609 222.52246094 C-128.54922181 217.87664936 -143.12157634 210.61977254 -155.03125 201.171875 C-155.03125 200.511875 -155.03125 199.851875 -155.03125 199.171875 C-155.629375 198.883125 -156.2275 198.594375 -156.84375 198.296875 C-159.03125 197.171875 -159.03125 197.171875 -162.03125 195.171875 C-162.03125 194.511875 -162.03125 193.851875 -162.03125 193.171875 C-162.69125 193.171875 -163.35125 193.171875 -164.03125 193.171875 C-164.03125 192.511875 -164.03125 191.851875 -164.03125 191.171875 C-164.69125 191.171875 -165.35125 191.171875 -166.03125 191.171875 C-166.03125 190.511875 -166.03125 189.851875 -166.03125 189.171875 C-166.88976562 188.8315625 -166.88976562 188.8315625 -167.765625 188.484375 C-170.65254471 186.81195255 -172.22595494 184.79047315 -174.28125 182.171875 C-175.34085938 180.8415625 -175.34085938 180.8415625 -176.421875 179.484375 C-178.03125 177.171875 -178.03125 177.171875 -178.03125 175.171875 C-178.69125 175.171875 -179.35125 175.171875 -180.03125 175.171875 C-181.1887207 173.60229492 -181.1887207 173.60229492 -182.45703125 171.40234375 C-182.92165771 170.60135254 -183.38628418 169.80036133 -183.86499023 168.97509766 C-184.35298096 168.11190918 -184.84097168 167.2487207 -185.34375 166.359375 C-185.84140869 165.48587402 -186.33906738 164.61237305 -186.85180664 163.71240234 C-203.18426262 134.76588471 -207.89602439 100.36747359 -199.46289062 67.98974609 C-197.28691088 60.46360257 -194.36536382 53.25330478 -191.03125 46.171875 C-190.44223825 44.82016856 -189.85848695 43.46615156 -189.28125 42.109375 C-188.86875 41.14 -188.45625 40.170625 -188.03125 39.171875 C-187.37125 39.171875 -186.71125 39.171875 -186.03125 39.171875 C-185.92941406 38.61757812 -185.82757813 38.06328125 -185.72265625 37.4921875 C-183.21503666 29.07678615 -175.98557472 20.4820904 -170.03125 14.171875 C-169.37125 14.171875 -168.71125 14.171875 -168.03125 14.171875 C-168.03125 13.511875 -168.03125 12.851875 -168.03125 12.171875 C-167.37125 12.171875 -166.71125 12.171875 -166.03125 12.171875 C-166.03125 11.511875 -166.03125 10.851875 -166.03125 10.171875 C-164.31792246 8.58653798 -162.53435953 7.07646285 -160.71875 5.609375 C-159.73261719 4.80371094 -158.74648437 3.99804688 -157.73046875 3.16796875 C-155.03125 1.171875 -155.03125 1.171875 -152.03125 0.171875 C-152.03125 -0.488125 -152.03125 -1.148125 -152.03125 -1.828125 C-150.39941893 -2.88401569 -148.72332001 -3.8717376 -147.03125 -4.828125 C-145.68933594 -5.74658203 -145.68933594 -5.74658203 -144.3203125 -6.68359375 C-99.78535939 -35.72122944 -41.9460645 -30.73453621 0 0 Z M-61.03125 27.171875 C-61.77761719 27.68105469 -62.52398437 28.19023437 -63.29296875 28.71484375 C-64.15341797 29.43607422 -64.15341797 29.43607422 -65.03125 30.171875 C-65.03125 30.831875 -65.03125 31.491875 -65.03125 32.171875 C-65.69125 32.171875 -66.35125 32.171875 -67.03125 32.171875 C-72.50271882 38.60786557 -74.56005783 46.65943217 -74.27734375 55.0078125 C-73.34990272 63.16340506 -71.06663663 70.41523113 -65.03125 76.171875 C-55.19765973 83.51143876 -47.20678584 85.43966164 -35.03125 84.171875 C-28.4412616 81.96533956 -22.34411131 78.71698239 -18.03125 73.171875 C-18.03125 72.511875 -18.03125 71.851875 -18.03125 71.171875 C-17.37125 71.171875 -16.71125 71.171875 -16.03125 71.171875 C-15.38367375 69.73515932 -14.73825547 68.29747084 -14.09375 66.859375 C-13.73410156 66.05886719 -13.37445313 65.25835937 -13.00390625 64.43359375 C-9.84669121 57.09211782 -9.92110061 49.16370513 -12.84375 41.734375 C-14.35570323 38.41662603 -15.86970039 35.11944265 -18.03125 32.171875 C-18.69125 32.171875 -19.35125 32.171875 -20.03125 32.171875 C-20.03125 31.511875 -20.03125 30.851875 -20.03125 30.171875 C-21.87525303 28.64559617 -21.87525303 28.64559617 -24.21875 27.171875 C-24.99605469 26.65625 -25.77335937 26.140625 -26.57421875 25.609375 C-37.08723591 19.45867498 -51.10416314 20.22095619 -61.03125 27.171875 Z " fill="#039D9A" transform="translate(227.03125,201.828125)"/>
<path d="M0 0 C0.83917969 0.17144531 1.67835938 0.34289063 2.54296875 0.51953125 C23.27233311 5.26554525 42.56307186 19.40754771 53.9375 37.1875 C55.32752425 39.44007057 56.66748914 41.712104 58 44 C58.41894531 44.69480469 58.83789062 45.38960937 59.26953125 46.10546875 C63.00315317 52.84383819 64.8579376 60.64213509 67 68 C67.18103271 68.60859863 67.36206543 69.21719727 67.54858398 69.84423828 C72.19415466 92.02941357 66.61153021 113.70144884 56 133 C55.32636632 134.32982701 54.65630097 135.66153399 54 137 C53.34 137 52.68 137 52 137 C51.79375 137.680625 51.5875 138.36125 51.375 139.0625 C49.57104973 142.91639375 47.0989655 146.07787764 44 149 C43.34 149 42.68 149 42 149 C42 149.66 42 150.32 42 151 C41.34 151 40.68 151 40 151 C40 151.66 40 152.32 40 153 C23.5344183 168.85839105 -0.53371008 176.48923624 -23.07421875 176.28125 C-46.63564528 174.5932672 -67.97028776 165.451543 -85 149 C-102.94637825 128.04362793 -110.77597307 104.39633073 -109.26611328 77.02539062 C-107.72623967 59.51886422 -99.81999863 41.09633651 -88 28 C-87.34 28 -86.68 28 -86 28 C-85.7525 27.41863281 -85.505 26.83726563 -85.25 26.23828125 C-78.2267605 13.66229303 -60.66248838 5.87956102 -47.5 1.8125 C-46.69691406 1.55275391 -45.89382813 1.29300781 -45.06640625 1.02539062 C-30.86653269 -3.42789225 -14.40792896 -3.60772703 0 0 Z " fill="#7DDBD7" transform="translate(325,48)"/>
<path d="M0 0 C1.14299561 0.00491455 2.28599121 0.0098291 3.46362305 0.01489258 C11.42598946 0.12575737 18.49559327 0.68099193 26.0625 3.3125 C27.12984375 3.66441406 28.1971875 4.01632812 29.296875 4.37890625 C40.82344147 8.47814292 53.91993842 14.86712857 62.0625 24.3125 C62.0625 24.9725 62.0625 25.6325 62.0625 26.3125 C62.7225 26.3125 63.3825 26.3125 64.0625 26.3125 C64.0625 26.9725 64.0625 27.6325 64.0625 28.3125 C64.7225 28.3125 65.3825 28.3125 66.0625 28.3125 C68.94426529 31.81802401 71.46511586 35.59304592 74.0625 39.3125 C74.76375 40.26125 75.465 41.21 76.1875 42.1875 C88.68729347 63.02048912 92.14748484 87.17486945 86.4375 110.75 C82.87844101 123.09148514 77.24042867 135.32120453 69.0625 145.3125 C68.0725 145.6425 67.0825 145.9725 66.0625 146.3125 C65.78019531 146.88742187 65.49789062 147.46234375 65.20703125 148.0546875 C63.61416044 151.19693776 61.35184503 153.07858773 58.75 155.4375 C57.33267578 156.74074219 57.33267578 156.74074219 55.88671875 158.0703125 C53.28130798 160.13878523 51.20125501 161.29483444 48.0625 162.3125 C48.0625 162.9725 48.0625 163.6325 48.0625 164.3125 C43.187505 167.24511418 38.40534604 169.50302126 33.0625 171.4375 C32.05316406 171.81455078 32.05316406 171.81455078 31.0234375 172.19921875 C9.93732223 179.97421492 -15.14295632 179.86047029 -35.77441406 170.47705078 C-40.97568415 168.01127328 -46.14228347 165.50931102 -50.9375 162.3125 C-50.9375 161.6525 -50.9375 160.9925 -50.9375 160.3125 C-51.9275 160.3125 -52.9175 160.3125 -53.9375 160.3125 C-53.9375 159.6525 -53.9375 158.9925 -53.9375 158.3125 C-54.82115234 157.90257812 -54.82115234 157.90257812 -55.72265625 157.484375 C-61.50180084 154.42662654 -66.05393364 149.49058848 -69.9375 144.3125 C-69.9375 143.6525 -69.9375 142.9925 -69.9375 142.3125 C-70.5975 142.3125 -71.2575 142.3125 -71.9375 142.3125 C-81.48271187 129.75753664 -87.93467851 113.15608783 -88.625 97.4375 C-88.66189941 96.60959961 -88.69879883 95.78169922 -88.73681641 94.92871094 C-89.61767567 71.23133803 -84.16161281 49.04567352 -68.2421875 30.78515625 C-57.78165906 19.56225031 -57.78165906 19.56225031 -52.9375 16.3125 C-52.2775 16.3125 -51.6175 16.3125 -50.9375 16.3125 C-50.9375 15.6525 -50.9375 14.9925 -50.9375 14.3125 C-33.78192693 5.54315 -19.64773973 -0.10036974 0 0 Z " fill="#0B5E5E" transform="translate(363.9375,309.6875)"/>
<path d="M0 0 C7.27821883 7.27821883 6.48655383 21.85750536 6.5625 31.3125 C6.48823014 46.83391029 3.98527554 60.47600142 -4 74 C-4.33 73.01 -4.66 72.02 -5 71 C-4.505 70.505 -4.505 70.505 -4 70 C-3.65111516 68.63377871 -3.34578655 67.25631458 -3.0625 65.875 C-2.4759056 63.12318217 -1.84320491 60.45644367 -1.0625 57.75 C-0.5365625 55.89375 -0.5365625 55.89375 0 54 C0.26167969 53.1234375 0.52335937 52.246875 0.79296875 51.34375 C4.73552189 36.68411577 3.40481577 21.81506941 1 7 C0.66308883 4.66718059 0.32877136 2.33398049 0 0 Z " fill="#B7E9E5" transform="translate(387,103)"/>
<path d="M0 0 C0.99 0.99 0.99 0.99 2 2 C-0.29199177 1.85936865 -2.58359186 1.71234057 -4.875 1.5625 C-6.15117187 1.48128906 -7.42734375 1.40007812 -8.7421875 1.31640625 C-12 1 -12 1 -14 0 C-16.85306062 -0.27358115 -19.70570456 -0.44625242 -22.56640625 -0.62109375 C-23.36949219 -0.74613281 -24.17257813 -0.87117187 -25 -1 C-25.495 -1.99 -25.495 -1.99 -26 -3 C-30.18090413 -3.02480683 -34.36176872 -3.04291049 -38.54272461 -3.05493164 C-39.96363064 -3.05994565 -41.38453156 -3.06675852 -42.80541992 -3.07543945 C-44.85336576 -3.08763388 -46.9012431 -3.09325772 -48.94921875 -3.09765625 C-50.17987061 -3.10289307 -51.41052246 -3.10812988 -52.6784668 -3.11352539 C-55.60471359 -3.01351034 -58.15204807 -2.61704112 -61 -2 C-63.33301986 -1.96175377 -65.66711508 -1.95425716 -68 -2 C-65.12696237 -3.91535842 -64.2416472 -4.29291996 -61.0078125 -4.6328125 C-60.22720459 -4.71692383 -59.44659668 -4.80103516 -58.64233398 -4.88769531 C-57.39625366 -5.00516113 -57.39625366 -5.00516113 -56.125 -5.125 C-55.26656494 -5.2084668 -54.40812988 -5.29193359 -53.52368164 -5.37792969 C-35.61651185 -7.02217464 -17.09292875 -6.01070022 0 0 Z " fill="#87CDCC" transform="translate(190,182)"/>
<path d="M0 0 C-20.58272603 8.85496588 -43.3960868 11.61737976 -65 4 C-65 3.67 -65 3.34 -65 3 C-60.79766461 2.81322954 -57.13902027 3.11913046 -53.01953125 3.98828125 C-46.81828861 5.14737275 -40.7957016 5.33181197 -34.5 5.3125 C-33.44941406 5.32861328 -32.39882813 5.34472656 -31.31640625 5.36132812 C-22.40803784 5.36683392 -14.74567149 3.51484524 -6.5 0.25 C-3 -1 -3 -1 0 0 Z " fill="#ACCCCC" transform="translate(401,479)"/>
<path d="M0 0 C-14.11343534 7.05671767 -32.56375281 8.87185994 -48 6 C-48 5.67 -48 5.34 -48 5 C-47.16976318 4.92483154 -46.33952637 4.84966309 -45.48413086 4.7722168 C-41.63444904 4.41889532 -37.78567078 4.05685981 -33.9375 3.6875 C-33.25037933 3.62163696 -32.56325867 3.55577393 -31.85531616 3.48791504 C-22.95410603 2.6232552 -14.22473529 1.55972242 -5.51953125 -0.546875 C-3 -1 -3 -1 0 0 Z " fill="#C6EEEC" transform="translate(339,217)"/>
<path d="M0 0 C-0.33 1.32 -0.66 2.64 -1 4 C-2.11375 4.226875 -3.2275 4.45375 -4.375 4.6875 C-5.57125 5.120625 -6.7675 5.55375 -8 6 C-8.67441131 7.6635479 -9.3400321 9.33066942 -10 11 C-11.91341507 12.4110344 -13.90919811 13.55525606 -15.97265625 14.734375 C-18.26817506 16.06158963 -18.26817506 16.06158963 -20.75 18.75 C-22.95798431 20.95798431 -23.95862085 21.66206898 -27 22 C-26.505 20.515 -26.505 20.515 -26 19 C-25.34 19 -24.68 19 -24 19 C-23.7525 18.41863281 -23.505 17.83726563 -23.25 17.23828125 C-19.57818528 10.66343802 -7.6780984 0 0 0 Z " fill="#8BD9D1" transform="translate(263,57)"/>
<path d="M0 0 C1.98 0 3.96 0 6 0 C6.66 2.31 7.32 4.62 8 7 C8.66 7 9.32 7 10 7 C10 7.66 10 8.32 10 9 C10.61875 9.268125 11.2375 9.53625 11.875 9.8125 C14 11 14 11 16 14 C17.91595089 15.1433257 17.91595089 15.1433257 20.0625 16.0625 C23.89381564 17.78763127 23.89381564 17.78763127 25 20 C25.99 19.67 26.98 19.34 28 19 C28 20.65 28 22.3 28 24 C23.89160936 22.54997977 20.49655387 20.6020866 17 18 C17 17.34 17 16.68 17 16 C16.1028125 15.566875 16.1028125 15.566875 15.1875 15.125 C13 14 13 14 10 12 C10 11.34 10 10.68 10 10 C9.34 10 8.68 10 8 10 C8 9.34 8 8.68 8 8 C7.34 8 6.68 8 6 8 C6 7.34 6 6.68 6 6 C5.38125 5.7525 4.7625 5.505 4.125 5.25 C1.64931313 3.79371361 1.04874998 2.62187494 0 0 Z " fill="#97D9D7" transform="translate(55,385)"/>
<path d="M0 0 C-9.7442113 6.69914527 -25.94655629 15.90400828 -38 15 C-34.72828292 13.24560099 -31.39577958 12.04282615 -27.875 10.875 C-26.82054687 10.52179688 -25.76609375 10.16859375 -24.6796875 9.8046875 C-22 9 -22 9 -20 9 C-19.67 8.01 -19.34 7.02 -19 6 C-17.35 5.67 -15.7 5.34 -14 5 C-13.67 4.01 -13.34 3.02 -13 2 C-10.56640625 1.015625 -10.56640625 1.015625 -7.5625 0.25 C-6.07943359 -0.14445312 -6.07943359 -0.14445312 -4.56640625 -0.546875 C-2 -1 -2 -1 0 0 Z " fill="#85CFCE" transform="translate(218,410)"/>
<path d="M0 0 C0.99 0.99 1.98 1.98 3 3 C2.34 4.32 1.68 5.64 1 7 C0.34 7 -0.32 7 -1 7 C-1.33 7.99 -1.66 8.98 -2 10 C-2.66 10 -3.32 10 -4 10 C-4 11.32 -4 12.64 -4 14 C-4.66 14 -5.32 14 -6 14 C-5.67 15.98 -5.34 17.96 -5 20 C-5.66 20 -6.32 20 -7 20 C-8.73662334 23.22515763 -9.8905928 26.51329166 -11 30 C-11.33 30 -11.66 30 -12 30 C-11.23549892 19.04215115 -5.93347149 9.03274182 0 0 Z " fill="#76A5A2" transform="translate(290,348)"/>
<path d="M0 0 C4.13632141 1.38614693 6.75260908 3.29152313 9.9375 6.25 C10.79988281 7.04792969 11.66226562 7.84585938 12.55078125 8.66796875 C15.4191934 11.3991363 18.2360149 14.16327845 21 17 C20.67 17.66 20.34 18.32 20 19 C19.56429688 18.62488281 19.12859375 18.24976562 18.6796875 17.86328125 C17.4365021 16.79500289 16.19160758 15.72871134 14.9453125 14.6640625 C13.72742072 13.62225146 12.51325016 12.57605659 11.3046875 11.5234375 C8.86802327 9.4296205 7.08150411 8.02716804 4 7 C3.67 6.34 3.34 5.68 3 5 C0.98330173 3.86649466 0.98330173 3.86649466 -1 3 C-0.67 2.01 -0.34 1.02 0 0 Z " fill="#B8E9E6" transform="translate(353,61)"/>
<path d="M0 0 C1.32 0 2.64 0 4 0 C2.9475548 2.75254898 1.82342035 5.33196973 0.4375 7.9375 C-3.29053303 15.87983124 -2.20440013 24.56919909 -1 33 C-1.99 32.34 -2.98 31.68 -4 31 C-4.25097679 28.02712018 -4.32552388 25.27917228 -4.25 22.3125 C-4.24484375 21.52166016 -4.2396875 20.73082031 -4.234375 19.91601562 C-4.17194121 15.19055846 -3.77373929 10.66115526 -3 6 C-2.34 6 -1.68 6 -1 6 C-0.67 4.02 -0.34 2.04 0 0 Z " fill="#ACE2E1" transform="translate(156,234)"/>
<path d="M0 0 C0.99 0.33 1.98 0.66 3 1 C2.01 1.495 2.01 1.495 1 2 C0.62875 2.7425 0.2575 3.485 -0.125 4.25 C-2.72422383 8.06219495 -6.04060028 9.75971096 -10 12 C-10.886875 12.53625 -11.77375 13.0725 -12.6875 13.625 C-13.450625 14.07875 -14.21375 14.5325 -15 15 C-15.928125 15.556875 -16.85625 16.11375 -17.8125 16.6875 C-18.534375 17.120625 -19.25625 17.55375 -20 18 C-20 17.34 -20 16.68 -20 16 C-18.28667246 14.41466298 -16.50310953 12.90458785 -14.6875 11.4375 C-13.70136719 10.63183594 -12.71523437 9.82617188 -11.69921875 8.99609375 C-9 7 -9 7 -6 6 C-6 5.34 -6 4.68 -6 4 C-4.36368108 2.95107762 -2.69514137 1.95093297 -1 1 C-0.67 0.67 -0.34 0.34 0 0 Z " fill="#77C8C6" transform="translate(81,196)"/>
<path d="M0 0 C0 0.66 0 1.32 0 2 C-0.99 2.33 -1.98 2.66 -3 3 C-3.33 3.66 -3.66 4.32 -4 5 C-4.99 5 -5.98 5 -7 5 C-7.20625 5.598125 -7.4125 6.19625 -7.625 6.8125 C-9 9 -9 9 -11.75 10.3125 C-15.33815332 12.17557961 -17.5821756 14.28145299 -20.375 17.1875 C-21.24898438 18.08855469 -22.12296875 18.98960937 -23.0234375 19.91796875 C-23.67570312 20.60503906 -24.32796875 21.29210937 -25 22 C-25 19 -25 19 -22.734375 16.40625 C-21.74721061 15.42972889 -20.7520431 14.46124745 -19.75 13.5 C-19.25886719 13.01402344 -18.76773437 12.52804687 -18.26171875 12.02734375 C-11.0811904 5 -11.0811904 5 -8 5 C-8 4.34 -8 3.68 -8 3 C-2.25 0 -2.25 0 0 0 Z " fill="#9ABDBC" transform="translate(321,321)"/>
<path d="M0 0 C1 2 1 2 0.375 4.875 C-1.20376931 8.46311206 -2.82755428 9.779288 -6 12 C-6.66 12.66 -7.32 13.32 -8 14 C-9.98645776 14.40632091 -11.99053778 14.72949547 -14 15 C-15.670625 15.2784375 -15.670625 15.2784375 -17.375 15.5625 C-18.24125 15.706875 -19.1075 15.85125 -20 16 C-17.56298801 14.37532534 -15.22006585 13.07853201 -12.625 11.75 C-8.30603629 9.39739375 -5.96701476 6.86611015 -3 3 C-2.34 3 -1.68 3 -1 3 C-0.67 2.01 -0.34 1.02 0 0 Z " fill="#72C7C4" transform="translate(212,270)"/>
<path d="M0 0 C0 3 0 3 -1.25 4.61328125 C-5.57281809 8.81066042 -10.08470289 12.51460751 -15 16 C-15.66 15.67 -16.32 15.34 -17 15 C-17 14.01 -17 13.02 -17 12 C-15.35 11.67 -13.7 11.34 -12 11 C-12 10.01 -12 9.02 -12 8 C-11.34 8 -10.68 8 -10 8 C-10 7.01 -10 6.02 -10 5 C-9.01 5.33 -8.02 5.66 -7 6 C-6.34 5.01 -5.68 4.02 -5 3 C-3.36504293 1.94895617 -1.70116376 0.94011682 0 0 Z " fill="#5A8E8E" transform="translate(429,456)"/>
<path d="M0 0 C-2.99270542 1.99513695 -3.85760865 2.26276984 -7.25 2.5 C-12.17169345 2.95615695 -16.79776152 3.80449911 -21.1875 6.1875 C-23.51578031 7.23121186 -24.60958754 6.69782227 -27 6 C-24.19620829 4.7871408 -21.38505022 3.60522172 -18.5625 2.4375 C-17.77939453 2.09525391 -16.99628906 1.75300781 -16.18945312 1.40039062 C-10.28208649 -1.0063143 -6.27695414 -1.14983244 0 0 Z " fill="#89D1CF" transform="translate(125,181)"/>
<path d="M0 0 C0.33 0 0.66 0 1 0 C0.98952637 0.85231201 0.97905273 1.70462402 0.96826172 2.58276367 C0.93407345 5.76032505 0.90904927 8.93779232 0.89013672 12.11547852 C0.88011074 13.48790583 0.86648644 14.86031195 0.84912109 16.23266602 C0.82472373 18.21100527 0.81455516 20.18950367 0.8046875 22.16796875 C0.79421387 23.35672607 0.78374023 24.5454834 0.77294922 25.77026367 C0.99769236 28.96717447 1.69217846 31.10593397 3 34 C3.23608151 36.70549407 3.09234983 39.27567998 3 42 C-1.88597734 34.67103399 -1.28269268 25.75721944 -1.1875 17.25 C-1.18685547 16.14011719 -1.18621094 15.03023437 -1.18554688 13.88671875 C-1.1596531 9.10500079 -1.06639363 4.67830341 0 0 Z " fill="#DFF9F8" transform="translate(217,117)"/>
<path d="M0 0 C4.6889493 0.55619669 8.19924267 1.88182673 12.375 4.0625 C13.43460938 4.61035156 14.49421875 5.15820312 15.5859375 5.72265625 C16.38257813 6.14417969 17.17921875 6.56570312 18 7 C17.67 7.66 17.34 8.32 17 9 C12.7957422 8.47446778 9.56006378 6.8917069 5.8671875 4.9375 C3.8593422 3.87362707 3.8593422 3.87362707 1 3 C0.67 2.01 0.34 1.02 0 0 Z " fill="#67C0BD" transform="translate(192,184)"/>
<path d="M0 0 C3.93891054 4.37656726 6.95089464 9.47957917 9 15 C8.67 15.99 8.34 16.98 8 18 C4.33295017 14.70905784 2.76322937 12.83378602 2 8 C1.46375 7.505 0.9275 7.01 0.375 6.5 C-0.07875 6.005 -0.5325 5.51 -1 5 C-0.6875 2.3125 -0.6875 2.3125 0 0 Z " fill="#64C1BF" transform="translate(258,237)"/>
<path d="M0 0 C0 0.66 0 1.32 0 2 C-4.58518289 4.92671248 -8.44402261 6.53791687 -13.77734375 7.5625 C-16.91621216 8.18034405 -19.93543653 9.08715131 -23 10 C-23 9.34 -23 8.68 -23 8 C-22.01 7.67 -21.02 7.34 -20 7 C-19.67 6.34 -19.34 5.68 -19 5 C-16.72756525 4.41881464 -14.4301361 3.93368614 -12.125 3.5 C-8.1274752 2.74482078 -3.67977438 0 0 0 Z " fill="#5D8E8E" transform="translate(412,472)"/>
<path d="M0 0 C0.99 0.66 1.98 1.32 3 2 C2.67 3.32 2.34 4.64 2 6 C1.34 6 0.68 6 0 6 C-0.28875 6.639375 -0.5775 7.27875 -0.875 7.9375 C-2 10 -2 10 -4 11 C-4.12375 10.030625 -4.2475 9.06125 -4.375 8.0625 C-4.58125 7.051875 -4.7875 6.04125 -5 5 C-5.66 4.67 -6.32 4.34 -7 4 C-5.68 3.34 -4.36 2.68 -3 2 C-2.01 2.66 -1.02 3.32 0 4 C0 2.68 0 1.36 0 0 Z " fill="#47B5B2" transform="translate(249,375)"/>
<path d="M0 0 C0.33 0 0.66 0 1 0 C1.14901031 5.21536095 0.5519126 9.40655732 -2 14 C-3.32 13.67 -4.64 13.34 -6 13 C-5.3578757 10.02348631 -4.38279178 7.52216183 -3 4.8125 C-2.4740625 3.77029297 -2.4740625 3.77029297 -1.9375 2.70703125 C-1 1 -1 1 0 0 Z " fill="#9ADDD9" transform="translate(230,86)"/>
<path d="M0 0 C1.11375 0.185625 1.11375 0.185625 2.25 0.375 C2.8275 0.58125 3.405 0.7875 4 1 C4.33 1.99 4.66 2.98 5 4 C4.35675781 3.84660156 3.71351563 3.69320312 3.05078125 3.53515625 C-0.89767537 2.84253326 -4.8131887 2.64199119 -8.8125 2.4375 C-9.60076172 2.39431641 -10.38902344 2.35113281 -11.20117188 2.30664062 C-13.13394215 2.20121679 -15.06695026 2.10016906 -17 2 C-11.58121362 -0.95679881 -5.93274086 -1.64798357 0 0 Z " fill="#88D1CF" transform="translate(193,222)"/>
<path d="M0 0 C-4.69911948 4.34515983 -9.17926582 8.26083098 -15 11 C-15.99 10.67 -16.98 10.34 -18 10 C-15.86567858 6.79851787 -15.31580104 6.47793261 -11.875 5.3125 C-11.15054687 5.06113281 -10.42609375 4.80976563 -9.6796875 4.55078125 C-8.84824219 4.27814453 -8.84824219 4.27814453 -8 4 C-8 2.68 -8 1.36 -8 0 C-2.25 -1.125 -2.25 -1.125 0 0 Z " fill="#C4F0EC" transform="translate(363,202)"/>
<path d="M0 0 C0 3.76603821 -1.07407243 4.77142649 -3.375 7.6875 C-4.31472656 8.89986328 -4.31472656 8.89986328 -5.2734375 10.13671875 C-5.84320313 10.75160156 -6.41296875 11.36648437 -7 12 C-7.66 12 -8.32 12 -9 12 C-9 12.66 -9 13.32 -9 14 C-9.66 14 -10.32 14 -11 14 C-11 14.66 -11 15.32 -11 16 C-11.66 15.67 -12.32 15.34 -13 15 C-12.67 13.02 -12.34 11.04 -12 9 C-10.68 9 -9.36 9 -8 9 C-8 8.34 -8 7.68 -8 7 C-7.236875 6.54625 -6.47375 6.0925 -5.6875 5.625 C-2.99130956 3.99474531 -1.70517864 2.60264108 0 0 Z " fill="#BCECE9" transform="translate(376,185)"/>
<path d="M0 0 C4.74478747 3.74588485 5.62144726 6.65707393 6.52734375 12.55859375 C7.13200579 15.68184808 8.52989118 18.19979273 10 21 C9.67 21.66 9.34 22.32 9 23 C6.66666667 18.33333333 4.33333333 13.66666667 2 9 C1.5978125 8.2471875 1.195625 7.494375 0.78125 6.71875 C-0.26061042 4.42665709 -0.13801527 2.48427479 0 0 Z " fill="#96D7D5" transform="translate(31,342)"/>
<path d="M0 0 C2.81191561 2.81191561 3.53516103 6.16519078 4.6875 9.875 C4.92533203 10.59558594 5.16316406 11.31617188 5.40820312 12.05859375 C6.65101084 16.01662654 7.03040968 17.87836127 6 22 C5.34 19.03 4.68 16.06 4 13 C2.68 13 1.36 13 0 13 C0 8.71 0 4.42 0 0 Z " fill="#8BD3D0" transform="translate(267,255)"/>
<path d="M0 0 C1.34733513 4.0420054 0.02580484 6.76603971 -1.3125 10.625 C-1.53873047 11.31851562 -1.76496094 12.01203125 -1.99804688 12.7265625 C-3.74119084 17.87059542 -3.74119084 17.87059542 -6 19 C-6 16.36 -6 13.72 -6 11 C-5.34 10.67 -4.68 10.34 -4 10 C-4 8.35 -4 6.7 -4 5 C-3.34 5 -2.68 5 -2 5 C-1.34 3.35 -0.68 1.7 0 0 Z " fill="#7CCCC8" transform="translate(271,336)"/>
<path d="M0 0 C2.625 1.25 2.625 1.25 5 3 C5 3.99 5 4.98 5 6 C6.32 6.33 7.64 6.66 9 7 C8.67 7.66 8.34 8.32 8 9 C9.2065625 9.433125 9.2065625 9.433125 10.4375 9.875 C13 11 13 11 14 13 C9.25 11.125 9.25 11.125 7 10 C7 9.34 7 8.68 7 8 C6.01 8 5.02 8 4 8 C4 7.34 4 6.68 4 6 C3.38125 5.731875 2.7625 5.46375 2.125 5.1875 C0 4 0 4 -2 1 C-1.34 0.67 -0.68 0.34 0 0 Z " fill="#81ACAB" transform="translate(306,462)"/>
<path d="M0 0 C5.66588235 1.84470588 5.66588235 1.84470588 8.21875 3.03125 C11.73012026 4.25431155 15.13261333 4.45597171 18.8125 4.625 C19.50537109 4.66367187 20.19824219 4.70234375 20.91210938 4.7421875 C22.60767015 4.83573568 24.30379712 4.91892364 26 5 C26 5.33 26 5.66 26 6 C6.8372093 6.41860465 6.8372093 6.41860465 0 3 C0 2.01 0 1.02 0 0 Z " fill="#B5EFEF" transform="translate(166,281)"/>
<path d="M0 0 C6.23379028 1.7386762 10.99548126 3.84731423 16 8 C16 8.66 16 9.32 16 10 C16.66 10.33 17.32 10.66 18 11 C14.16970994 10.31535878 11.21621377 8.57062079 7.875 6.625 C6.82054687 6.01914063 5.76609375 5.41328125 4.6796875 4.7890625 C2 3 2 3 0 0 Z " fill="#C5EDEC" transform="translate(250,204)"/>
<path d="M0 0 C7.25469544 0.41854012 13.53919606 2.6817311 20 6 C20.33 6.66 20.66 7.32 21 8 C17.53058454 7.54177532 14.32604951 7.10868317 11 6 C11 5.34 11 4.68 11 4 C10.37351562 3.96261719 9.74703125 3.92523438 9.1015625 3.88671875 C8.28429687 3.82097656 7.46703125 3.75523438 6.625 3.6875 C5.81289063 3.62949219 5.00078125 3.57148437 4.1640625 3.51171875 C2 3 2 3 0 0 Z " fill="#BDECE8" transform="translate(325,49)"/>
<path d="M0 0 C-0.1875 1.875 -0.1875 1.875 -1 4 C-4.97795871 6.16979566 -9.61514628 6.95952624 -14 8 C-11.16001567 3.03002743 -5.6672002 0 0 0 Z " fill="#69C1C1" transform="translate(98,188)"/>
<path d="M0 0 C0.99 0.33 1.98 0.66 3 1 C1.63312778 4.98671063 -0.15195093 7.88494633 -3 11 C-3.66 11 -4.32 11 -5 11 C-5.25 8.75 -5.25 8.75 -5 6 C-3.0625 3.8125 -3.0625 3.8125 -1 2 C-0.67 1.34 -0.34 0.68 0 0 Z " fill="#6E9E9C" transform="translate(435,445)"/>
<path d="M0 0 C4.55295266 0.96871333 6.9157948 2.59673909 10 6 C10.99 6.66 11.98 7.32 13 8 C6.97229862 7.52412884 2.23321711 4.80277043 -3 2 C-2.01 1.34 -1.02 0.68 0 0 Z " fill="#93B7B5" transform="translate(323,474)"/>
<path d="M0 0 C0.66 0.33 1.32 0.66 2 1 C1.38511719 1.51949219 0.77023438 2.03898437 0.13671875 2.57421875 C-0.67152344 3.27160156 -1.47976562 3.96898438 -2.3125 4.6875 C-3.11300781 5.37199219 -3.91351563 6.05648437 -4.73828125 6.76171875 C-7.01771407 9.0175305 -8.38253785 11.25407589 -10 14 C-12.1875 14.8125 -12.1875 14.8125 -14 15 C-13.67 14.01 -13.34 13.02 -13 12 C-12.34 12 -11.68 12 -11 12 C-10.76539063 11.42765625 -10.53078125 10.8553125 -10.2890625 10.265625 C-8.70593415 7.48315699 -6.8008475 5.82929786 -4.375 3.75 C-3.55773437 3.04359375 -2.74046875 2.3371875 -1.8984375 1.609375 C-1.27195313 1.07828125 -0.64546875 0.5471875 0 0 Z " fill="#D4F4F2" transform="translate(250,64)"/>
<path d="M0 0 C1.32 0 2.64 0 4 0 C2.55049545 3.7910119 0.84827434 7.3874638 -1 11 C-1.66 11 -2.32 11 -3 11 C-3 9.35 -3 7.7 -3 6 C-2.34 6 -1.68 6 -1 6 C-0.67 4.02 -0.34 2.04 0 0 Z " fill="#65C0BC" transform="translate(156,234)"/>
<path d="M0 0 C1.16161779 2.86578759 0.9946154 4.01630163 0.00390625 7.015625 C-0.70958984 8.61664063 -0.70958984 8.61664063 -1.4375 10.25 C-1.91058594 11.32765625 -2.38367188 12.4053125 -2.87109375 13.515625 C-3.24363281 14.33546875 -3.61617188 15.1553125 -4 16 C-5.11986537 12.64040388 -4.74044099 11.37312008 -4 8 C-4 6.68 -4 5.36 -4 4 C-3.01 3.67 -2.02 3.34 -1 3 C-0.67 2.01 -0.34 1.02 0 0 Z " fill="#92B8B7" transform="translate(448,421)"/>
<path d="M0 0 C3.53790403 3.69172595 3.59115883 7.09390595 4 12 C2.35 11.67 0.7 11.34 -1 11 C-1 9.68 -1 8.36 -1 7 C-0.34 7 0.32 7 1 7 C0.67 4.69 0.34 2.38 0 0 Z " fill="#6DA09E" transform="translate(445,364)"/>
<path d="M0 0 C3.25548753 3.02295271 5.68977058 6.20462309 8 10 C8 10.66 8 11.32 8 12 C7.01 12 6.02 12 5 12 C1.85092515 8.10996636 0.473492 4.97166604 0 0 Z " fill="#83ABAA" transform="translate(434,345)"/>
<path d="M0 0 C0.33 0.66 0.66 1.32 1 2 C0.06421005 4.35981813 -0.93347808 6.69631264 -2 9 C-2.99 9 -3.98 9 -5 9 C-5 9.66 -5 10.32 -5 11 C-5.66 11 -6.32 11 -7 11 C-5.5140084 6.40693504 -3.14985318 3.56430755 0 0 Z " fill="#75C6C3" transform="translate(52,223)"/>
<path d="M0 0 C1.07353169 2.74563864 1.03945688 3.88379367 0.07421875 6.7265625 C-0.61220703 8.16128906 -0.61220703 8.16128906 -1.3125 9.625 C-1.76238281 10.58664063 -2.21226562 11.54828125 -2.67578125 12.5390625 C-4 15 -4 15 -6 17 C-5.74412595 15.22694336 -5.46972261 13.45655392 -5.1875 11.6875 C-4.96126953 10.20830078 -4.96126953 10.20830078 -4.73046875 8.69921875 C-3.94571332 5.79940057 -3.17824312 4.94955617 -1 3 C-0.67 2.01 -0.34 1.02 0 0 Z " fill="#C1EEEB" transform="translate(388,160)"/>
<path d="M0 0 C1.7074998 1.28062485 3.37373596 2.61767557 5 4 C5 4.66 5 5.32 5 6 C5.99 6.33 6.98 6.66 8 7 C8 8.65 8 10.3 8 12 C7.34 12 6.68 12 6 12 C4.4921875 9.8828125 4.4921875 9.8828125 2.875 7.125 C2.33617187 6.22007812 1.79734375 5.31515625 1.2421875 4.3828125 C0 2 0 2 0 0 Z " fill="#86AEAE" transform="translate(286,440)"/>
<path d="M0 0 C0.45375 0.66 0.9075 1.32 1.375 2 C1.91125 2.66 2.4475 3.32 3 4 C3.66 4 4.32 4 5 4 C4.67 5.65 4.34 7.3 4 9 C4.66 9.33 5.32 9.66 6 10 C6 11.65 6 13.3 6 15 C3.22165316 13.61082658 3.00357014 12.04236447 1.875 9.1875 C1.52179688 8.31480469 1.16859375 7.44210937 0.8046875 6.54296875 C0 4 0 4 0 0 Z " fill="#85AFAF" transform="translate(280,425)"/>
<path d="M0 0 C0.66 0 1.32 0 2 0 C2 0.99 2 1.98 2 3 C2.99 3.33 3.98 3.66 5 4 C3.3545622 5.68762851 1.68711423 7.3540349 0 9 C-0.33 9 -0.66 9 -1 9 C-1.125 2.25 -1.125 2.25 0 0 Z " fill="#46B5B3" transform="translate(237,386)"/>
<path d="M0 0 C0.99 0.99 1.98 1.98 3 3 C2.34 4.32 1.68 5.64 1 7 C0.34 7 -0.32 7 -1 7 C-1.33 7.99 -1.66 8.98 -2 10 C-2.66 9.67 -3.32 9.34 -4 9 C-3.52418802 7.68628013 -3.04424851 6.37405454 -2.5625 5.0625 C-2.29566406 4.33160156 -2.02882813 3.60070312 -1.75390625 2.84765625 C-1 1 -1 1 0 0 Z " fill="#508786" transform="translate(290,348)"/>
<path d="M0 0 C1.875 0.5 1.875 0.5 4 2 C4.55021922 3.97431602 5.09093872 5.95495212 5.4921875 7.96484375 C6.15830032 10.63441896 7.56422335 12.67540924 9 15 C8.67 15.66 8.34 16.32 8 17 C0 4.54150198 0 4.54150198 0 0 Z " fill="#CFF3F2" transform="translate(222,166)"/>
<path d="M0 0 C2.5592805 0.34584872 4.52075586 0.68050391 6.6875 2.125 C8.60556094 4.86508705 9.21025737 7.78028005 10 11 C8.5 9.625 8.5 9.625 7 8 C7 7.34 7 6.68 7 6 C6.34 6 5.68 6 5 6 C5 5.34 5 4.68 5 4 C4.360625 3.71125 3.72125 3.4225 3.0625 3.125 C1 2 1 2 0 0 Z " fill="#81CDCB" transform="translate(202,228)"/>
<path d="M0 0 C-1.33934244 2.67868487 -2.51692397 2.74954078 -5.3125 3.6875 C-6.09238281 3.95949219 -6.87226563 4.23148438 -7.67578125 4.51171875 C-10.18274511 5.03839183 -11.60132343 4.8178554 -14 4 C-5.16 -1.72 -5.16 -1.72 0 0 Z " fill="#BBEAE7" transform="translate(277,52)"/>
<path d="M0 0 C1.32 0.99 2.64 1.98 4 3 C2.625 4.5 2.625 4.5 1 6 C0.34 6 -0.32 6 -1 6 C-1 6.66 -1 7.32 -1 8 C-1.66 8 -2.32 8 -3 8 C-3 6.35 -3 4.7 -3 3 C-2.34 3 -1.68 3 -1 3 C-0.67 2.01 -0.34 1.02 0 0 Z " fill="#4AB7B4" transform="translate(232,393)"/>
<path d="M0 0 C1.98 0 3.96 0 6 0 C6.66 2.31 7.32 4.62 8 7 C4.59679258 5.98823563 3.24274669 5.35156418 1.1875 2.375 C0.795625 1.59125 0.40375 0.8075 0 0 Z " fill="#56B7B5" transform="translate(55,385)"/>
<path d="M0 0 C3 2 3 2 4 5 C4.06740865 6.56118428 4.08514456 8.1250252 4.0625 9.6875 C4.05347656 10.49574219 4.04445313 11.30398438 4.03515625 12.13671875 C4.02355469 12.75160156 4.01195312 13.36648438 4 14 C0.73262697 10.73262697 0.04327104 7.16831802 -0.125 2.625 C-0.08375 1.75875 -0.0425 0.8925 0 0 Z " fill="#80CCC9" transform="translate(27,328)"/>
<path d="M0 0 C3.49844386 0.63389235 5.84086876 2.05177694 8.75 4.0625 C9.94882813 4.88427734 9.94882813 4.88427734 11.171875 5.72265625 C12.07679688 6.35494141 12.07679688 6.35494141 13 7 C9.61976483 7 7.16531063 6.12544378 4 5 C4 4.34 4 3.68 4 3 C2.68 3 1.36 3 0 3 C0 2.01 0 1.02 0 0 Z " fill="#89D1D1" transform="translate(210,192)"/>
<path d="M0 0 C6.625 -0.125 6.625 -0.125 10 1 C10 1.66 10 2.32 10 3 C11.98 3 13.96 3 16 3 C16 3.33 16 3.66 16 4 C10.06997733 4.37851209 5.52760359 3.10575375 0 1 C0 0.67 0 0.34 0 0 Z " fill="#BFD7D8" transform="translate(336,482)"/>
<path d="M0 0 C0.33 0.99 0.66 1.98 1 3 C0.0390625 4.82421875 0.0390625 4.82421875 -1.375 6.6875 C-1.83648437 7.31011719 -2.29796875 7.93273437 -2.7734375 8.57421875 C-3.17820313 9.04472656 -3.58296875 9.51523437 -4 10 C-4.33 10 -4.66 10 -5 10 C-5 7.69 -5 5.38 -5 3 C-4.360625 2.87625 -3.72125 2.7525 -3.0625 2.625 C-2.0415625 2.315625 -2.0415625 2.315625 -1 2 C-0.67 1.34 -0.34 0.68 0 0 Z " fill="#79CCCA" transform="translate(258,366)"/>
<path d="M0 0 C-4.75 3 -4.75 3 -7 3 C-7 3.66 -7 4.32 -7 5 C-8.98 5 -10.96 5 -13 5 C-11.5977422 2.1954844 -9.93929378 1.9557882 -7.0625 0.8125 C-6.16660156 0.44769531 -5.27070313 0.08289063 -4.34765625 -0.29296875 C-2 -1 -2 -1 0 0 Z " fill="#8FB5B5" transform="translate(334,316)"/>
<path d="M0 0 C-0.18359375 1.890625 -0.18359375 1.890625 -1 4 C-3.28515625 5.046875 -3.28515625 5.046875 -6.0625 5.75 C-7.44115234 6.11351562 -7.44115234 6.11351562 -8.84765625 6.484375 C-9.55792969 6.65453125 -10.26820313 6.8246875 -11 7 C-4.24137931 0 -4.24137931 0 0 0 Z " fill="#BDECE9" transform="translate(263,57)"/>
<path d="M0 0 C0 3 0 3 -1.53125 4.82421875 C-2.1809375 5.43910156 -2.830625 6.05398438 -3.5 6.6875 C-4.1496875 7.31011719 -4.799375 7.93273437 -5.46875 8.57421875 C-5.9740625 9.04472656 -6.479375 9.51523437 -7 10 C-7.66 9.67 -8.32 9.34 -9 9 C-6.46636932 4.77728219 -4.43379675 2.21689838 0 0 Z " fill="#A4C4C2" transform="translate(429,456)"/>
<path d="M0 0 C2 1.375 2 1.375 4 3 C4 3.66 4 4.32 4 5 C5.32 5.66 6.64 6.32 8 7 C7.01 7.495 7.01 7.495 6 8 C3.4375 6.875 3.4375 6.875 1 5 C0.1875 2.3125 0.1875 2.3125 0 0 Z " fill="#7DC8C4" transform="translate(158,273)"/>
<path d="M0 0 C0.33 0 0.66 0 1 0 C1 1.98 1 3.96 1 6 C0.195625 6.28875 -0.60875 6.5775 -1.4375 6.875 C-4.1326468 7.73262568 -4.1326468 7.73262568 -5 10 C-5 9.01 -5 8.02 -5 7 C-4.34 7 -3.68 7 -3 7 C-2.87625 6.401875 -2.7525 5.80375 -2.625 5.1875 C-2 3 -2 3 0 0 Z " fill="#79C9C6" transform="translate(44,234)"/>
<path d="M0 0 C-1.26239712 0.86658615 -2.53527501 1.71792059 -3.8125 2.5625 C-4.87404297 3.27599609 -4.87404297 3.27599609 -5.95703125 4.00390625 C-8 5 -8 5 -11 4 C-10.34 4 -9.68 4 -9 4 C-9.33 3.01 -9.66 2.02 -10 1 C-8.71073008 0.63720544 -7.41846728 0.28503302 -6.125 -0.0625 C-5.40570313 -0.25972656 -4.68640625 -0.45695312 -3.9453125 -0.66015625 C-2 -1 -2 -1 0 0 Z " fill="#8FD6D5" transform="translate(218,410)"/>
<path d="M0 0 C1 3 1 3 0.00390625 5.04296875 C-0.47175781 5.75066406 -0.94742187 6.45835937 -1.4375 7.1875 C-1.91058594 7.90292969 -2.38367188 8.61835938 -2.87109375 9.35546875 C-3.24363281 9.89816406 -3.61617188 10.44085938 -4 11 C-5.60031344 7.79937313 -4.03173691 5.27728194 -3 2 C-2.34 2 -1.68 2 -1 2 C-0.67 1.34 -0.34 0.68 0 0 Z " fill="#8FD5D1" transform="translate(264,355)"/>
<path d="M0 0 C3.58273331 1.65356922 6.80973467 3.67980703 10 6 C10 6.66 10 7.32 10 8 C7 8 7 8 5 6.0625 C4.34 5.381875 3.68 4.70125 3 4 C2.01 3.67 1.02 3.34 0 3 C0 2.01 0 1.02 0 0 Z " fill="#8CD3D0" transform="translate(223,200)"/>
<path d="M0 0 C0.99 0 1.98 0 3 0 C2.5359375 1.1446875 2.5359375 1.1446875 2.0625 2.3125 C1.32106407 4.18789677 0.63771783 6.08684652 0 8 C-0.66 8 -1.32 8 -2 8 C-2 6.02 -2 4.04 -2 2 C-1.34 2 -0.68 2 0 2 C0 1.34 0 0.68 0 0 Z " fill="#B7EAE6" transform="translate(379,177)"/>
<path d="M0 0 C1.9375 0.375 1.9375 0.375 4 1 C4.33 1.66 4.66 2.32 5 3 C5.99 2.67 6.98 2.34 8 2 C8 3.65 8 5.3 8 7 C4.59679258 5.98823563 3.24274669 5.35156418 1.1875 2.375 C0.795625 1.59125 0.40375 0.8075 0 0 Z " fill="#58B9B6" transform="translate(75,402)"/>
<path d="M0 0 C-2 2 -2 2 -4.6015625 2.1953125 C-5.59929687 2.17210937 -6.59703125 2.14890625 -7.625 2.125 C-9.12933594 2.09792969 -9.12933594 2.09792969 -10.6640625 2.0703125 C-11.43492187 2.04710937 -12.20578125 2.02390625 -13 2 C-13 1.67 -13 1.34 -13 1 C-8.20862412 -0.6290678 -4.94367454 -1.20577428 0 0 Z " fill="#175C57" transform="translate(381,483)"/>
<path d="M0 0 C1.33332095 2.6666419 0.67102033 4.16680303 0 7 C-0.66 7 -1.32 7 -2 7 C-2.33 8.32 -2.66 9.64 -3 11 C-4 8 -4 8 -3.22265625 5.95703125 C-2.83980469 5.24933594 -2.45695312 4.54164063 -2.0625 3.8125 C-1.68222656 3.09707031 -1.30195313 2.38164062 -0.91015625 1.64453125 C-0.60980469 1.10183594 -0.30945313 0.55914062 0 0 Z " fill="#8AAFB0" transform="translate(286,355)"/>
<path d="M0 0 C2.9375 0.8125 2.9375 0.8125 6 2 C6.33 2.99 6.66 3.98 7 5 C2.25 4.125 2.25 4.125 0 3 C0 2.01 0 1.02 0 0 Z " fill="#75C4C4" transform="translate(166,281)"/>
<path d="M0 0 C0.33 0 0.66 0 1 0 C1.17835515 4.54805635 0.99785435 7.8794254 -1 12 C-1.33 12 -1.66 12 -2 12 C-1.85831863 10.56208484 -1.71148957 9.1246763 -1.5625 7.6875 C-1.48128906 6.88699219 -1.40007813 6.08648437 -1.31640625 5.26171875 C-1 3 -1 3 0 0 Z " fill="#9CDAD9" transform="translate(29,266)"/>
<path d="M0 0 C-4.75 4 -4.75 4 -7 4 C-7.33 2.68 -7.66 1.36 -8 0 C-2.25 -1.125 -2.25 -1.125 0 0 Z " fill="#B4E8E5" transform="translate(363,202)"/>
<path d="M0 0 C0.33 0 0.66 0 1 0 C1 1.65 1 3.3 1 5 C0.360625 5.28875 -0.27875 5.5775 -0.9375 5.875 C-3.15206079 6.82823451 -3.15206079 6.82823451 -4 9 C-3.35499066 5.51694958 -1.95865224 2.93797836 0 0 Z " fill="#C3EFED" transform="translate(230,86)"/>
<path d="M0 0 C1.32 0.33 2.64 0.66 4 1 C4 1.66 4 2.32 4 3 C5.32 3.66 6.64 4.32 8 5 C6.68 5.33 5.36 5.66 4 6 C4 5.34 4 4.68 4 4 C3.34 4 2.68 4 2 4 C2 3.34 2 2.68 2 2 C1.34 2 0.68 2 0 2 C0 1.34 0 0.68 0 0 Z " fill="#77C7C7" transform="translate(61,391)"/>
<path d="M0 0 C4.875 1.75 4.875 1.75 6 4 C3.69 4 1.38 4 -1 4 C-0.67 2.68 -0.34 1.36 0 0 Z " fill="#79A3A1" transform="translate(410,323)"/>
<path d="M0 0 C0.66 0 1.32 0 2 0 C1.37240135 2.92879371 0.41377341 5.36095629 -1 8 C-1.66 7.01 -2.32 6.02 -3 5 C-1.625 2.5 -1.625 2.5 0 0 Z " fill="#8AD6D0" transform="translate(382,170)"/>
<path d="M0 0 C6.52307692 -0.36923077 6.52307692 -0.36923077 8.9375 1.5 C9.288125 1.995 9.63875 2.49 10 3 C3.375 2.25 3.375 2.25 0 0 Z " fill="#A1DFDC" transform="translate(110,422)"/>
<path d="M0 0 C2 2 2 2 2.125 4.625 C2.08375 5.40875 2.0425 6.1925 2 7 C0.68 7.33 -0.64 7.66 -2 8 C-1.34 5.36 -0.68 2.72 0 0 Z " fill="#73C6C5" transform="translate(215,261)"/>
<path d="M0 0 C0 0.99 0 1.98 0 3 C-2.64 3.33 -5.28 3.66 -8 4 C-3.375 0 -3.375 0 0 0 Z " fill="#8AD3D1" transform="translate(98,188)"/>
<path d="M0 0 C0.33 0.66 0.66 1.32 1 2 C0.0625 4.625 0.0625 4.625 -1 7 C-1.99 7 -2.98 7 -4 7 C-2.79618552 4.50638429 -1.54571278 2.31856917 0 0 Z " fill="#BAEBE8" transform="translate(235,79)"/>
</svg>
